<?xml version="1.0" encoding="UTF-8"?>
<svg width="752pt" height="752pt" version="1.1" viewBox="0 0 752 752" xmlns="http://www.w3.org/2000/svg">
 <defs>
  <clipPath id="b">
   <path d="m172 255h393v290h-393z"/>
  </clipPath>
  <clipPath id="a">
   <path d="m85.992 543.44 122.57-457.45 457.45 122.57-122.57 457.45z"/>
  </clipPath>
 </defs>
 <g clip-path="url(#b)">
  <g clip-path="url(#a)">
   <path d="m537.62 544.34c5.2656 0.027343 8.0703-2.6875 8.4336-8.1445-0.69141-28.461 3.3164-50.684 12.023-66.656l2.3867-2.6875c1.9531-1.1328 3.2852-2.9961 3.9805-5.5859 0.83203-3.1055 0.16797-5.7773-2.0039-8.0273-3.0664-3.0234-6.3008-3.3516-9.7227-0.9375-16.016 1.8203-41.188-4.6641-75.496-19.402-4.5156-1.7539-7.8242-0.28906-9.9141 4.4141-2.1094 4.7109-0.68359 8.2852 4.2031 10.695 25.934 10.828 46.859 17.551 62.816 20.16-17.094 12.059-37.109 20.004-60.055 23.84-22.922 3.8398-45.398 3.3711-67.414-1.418-26.801-5.5312-48.672-17.062-65.594-34.637-16.926-17.555-25.344-39.93-25.277-67.082-0.20312-26.117 11.605-51.516 35.391-76.199 3.6797 4.8711 7.8789 10.988 12.562 18.336 17.59 27.461 28.578 43.426 32.926 47.91 13.875 16.492 29.047 23.051 45.473 19.668 13.418-2.4883 23.836-8.7148 31.199-18.668 7.3867-9.9414 11.773-21.66 13.16-35.148 0.60547-12.59-1.3477-24.906-5.8984-36.949-4.5469-12.023-11.426-21.492-20.668-28.418-16.559-12.746-34.367-17.656-53.465-14.727-19.078 2.918-36.781 11.078-53.125 24.438l-0.20703 0.77344c-24.508-26.523-53.172-37.543-85.988-33.016-12.625 1.6094-23.691 4.5977-33.18 8.9922-9.5 4.4023-18.055 10.965-25.691 19.73-7.6094 8.7852-13.312 16.129-17.125 22.027-3.8008 5.9375-9.6367 15.312-17.527 28.168-2.4219 4.8984-1.3438 8.6523 3.2227 11.262 4.5742 2.6133 8.2578 1.793 11.047-2.4531 7.2422-12.469 12.75-21.656 16.555-27.582 3.8086-5.9102 9.0781-12.668 15.816-20.297 6.7734-7.6133 13.938-13.184 21.543-16.688 7.5977-3.5078 16.867-6.0156 27.801-7.5234 27.102-3.8398 50.977 5.3398 71.656 27.504-28.008 28.004-42.094 57.773-42.246 89.34 0.51562 31.207 10.547 56.902 30.094 77.117 19.535 20.195 44.258 33.484 74.176 39.828 22.016 4.8008 44.543 5.5703 67.602 2.3125 23.055-3.2422 43.762-10.176 62.133-20.785-2.5273 11.52-3.8398 27.809-3.9492 48.852 0.30859 5.0898 3.0898 7.6367 8.3477 7.6641zm-174.17-242.59c14.734-11.555 29.785-18.484 45.082-20.77 15.305-2.2617 29.188 1.3008 41.629 10.738 6.9141 5.1875 12.305 12.594 16.094 22.203 3.7969 9.6172 5.1562 19.555 4.0781 29.793-1.6914 22.844-11.84 35.918-30.48 39.246-10.574 2.168-20.945-2.5508-31.152-14.168-3.8203-4.3438-14.348-19.914-31.574-46.711-5.9531-8.8164-10.504-15.578-13.676-20.332z"/>
  </g>
 </g>
</svg>
